<?xml version="1.0" standalone="no"?>
<!DOCTYPE svg PUBLIC "-//W3C//DTD SVG 20010904//EN"
 "http://www.w3.org/TR/2001/REC-SVG-20010904/DTD/svg10.dtd">
<svg version="1.0" xmlns="http://www.w3.org/2000/svg"
 width="520.000000pt" height="520.000000pt" viewBox="0 0 520.000000 520.000000"
 preserveAspectRatio="xMidYMid meet">
<metadata>
Created by potrace 1.14, written by Peter Selinger 2001-2017
</metadata>
<g transform="translate(0.000000,520.000000) scale(0.100000,-0.100000)"
fill="#000000" stroke="none">
<path d="M305 4593 c-16 -18 -25 -40 -26 -63 -1 -19 -2 -46 -4 -60 -4 -45 -17
-175 -20 -200 -1 -14 -5 -59 -9 -100 -4 -41 -9 -93 -12 -115 -4 -22 -7 -53 -9
-70 -7 -88 -18 -192 -20 -205 -2 -8 -6 -49 -9 -90 -4 -41 -9 -91 -11 -110 -3
-19 -9 -84 -15 -145 -6 -60 -13 -121 -15 -135 -2 -14 -7 -63 -10 -110 -4 -47
-8 -87 -10 -90 -2 -3 -6 -45 -10 -93 -3 -48 -8 -96 -10 -106 -2 -9 -6 -51 -9
-92 -11 -117 -11 -121 -43 -174 -99 -168 -75 -396 53 -515 23 -21 61 -44 83
-50 38 -10 43 -16 75 -86 20 -41 51 -101 70 -133 l36 -58 105 2 106 2 41 -86
c110 -229 282 -449 483 -620 244 -205 610 -386 925 -456 37 -8 197 -37 220
-40 119 -14 186 -18 320 -19 211 -1 325 11 565 59 69 13 218 60 325 102 334
131 627 337 848 598 75 89 175 245 231 359 l50 102 107 -1 c80 -1 110 3 121
13 20 21 73 116 103 185 23 54 30 61 75 78 190 72 257 385 124 579 -18 27 -23
55 -34 175 -4 39 -8 81 -10 95 -4 26 -9 69 -25 240 -15 152 -21 211 -25 245
-2 17 -6 55 -9 85 -11 106 -36 355 -41 395 -2 22 -6 63 -9 90 -15 146 -18 181
-21 195 -1 8 -6 53 -10 100 -4 47 -8 99 -10 115 -2 17 -7 61 -10 100 -7 75
-24 119 -51 129 -29 11 -41 -11 -44 -87 -1 -39 -3 -90 -5 -112 -4 -59 -15
-230 -20 -310 -2 -38 -7 -124 -11 -190 -13 -224 -27 -620 -28 -800 l-1 -110
-83 1 c-46 1 -84 3 -86 5 -2 2 -19 38 -38 79 -48 104 -119 219 -197 320 -70
91 -240 266 -306 315 -22 17 -42 33 -45 36 -11 13 -168 119 -220 148 -105 60
-226 119 -319 155 -95 38 -305 101 -364 111 -18 3 -43 7 -57 10 -23 4 -50 9
-117 19 -90 14 -177 20 -328 20 -180 0 -267 -6 -380 -25 -38 -6 -80 -13 -92
-14 -50 -7 -244 -60 -337 -92 -143 -49 -362 -158 -491 -243 -60 -40 -112 -75
-115 -79 -3 -3 -27 -24 -55 -46 -127 -100 -286 -273 -378 -412 -43 -64 -147
-257 -158 -292 -4 -10 -27 -14 -82 -15 -42 -1 -77 1 -78 4 0 3 -2 82 -4 175
-3 174 -13 459 -20 575 -2 36 -7 117 -10 180 -3 63 -7 147 -10 185 -9 137 -15
232 -20 340 -7 133 -11 155 -30 155 -8 0 -26 -12 -40 -27z m1673 -1386 c61
-149 83 -182 131 -194 14 -4 238 -7 497 -7 571 0 517 -15 592 162 27 64 55
134 63 155 14 40 25 44 72 23 18 -7 57 -24 87 -36 30 -12 89 -41 130 -63 416
-222 689 -566 763 -962 15 -79 17 -328 3 -385 -3 -14 -9 -38 -12 -55 -11 -67
-76 -237 -120 -316 -115 -208 -300 -399 -520 -537 -89 -55 -283 -152 -306
-152 -8 0 -18 -4 -23 -9 -10 -9 -144 -52 -230 -73 -281 -69 -518 -78 -865 -32
-164 21 -429 109 -595 198 -72 38 -222 131 -235 146 -3 3 -25 21 -50 40 -152
118 -310 316 -392 490 -26 57 -74 196 -82 240 -3 14 -9 48 -15 75 -10 53 -8
319 3 370 45 202 111 351 224 505 117 159 277 302 460 411 114 68 343 172 353
161 4 -4 34 -74 67 -155z"/>
<path d="M1956 2487 c-51 -13 -118 -79 -133 -132 -14 -48 -16 -570 -2 -617 14
-51 51 -96 102 -124 98 -53 221 -15 277 86 24 44 24 47 25 325 0 154 -4 296
-8 315 -27 112 -142 177 -261 147z"/>
<path d="M3094 2481 c-52 -24 -91 -62 -111 -108 -23 -54 -27 -587 -5 -648 53
-144 239 -180 345 -68 49 52 54 91 53 404 l-1 286 -31 49 c-52 85 -164 123
-250 85z"/>
<path d="M2382 1293 c21 -158 243 -221 375 -105 27 23 67 108 58 122 -3 6 -22
10 -41 10 -27 0 -34 -4 -34 -19 0 -10 -9 -30 -21 -45 -66 -84 -210 -72 -254
22 -17 37 -23 42 -53 42 -30 0 -33 -2 -30 -27z"/>
</g>
</svg>
